<svg width="32" height="32" viewBox="0 0 32 32" fill="none" xmlns="http://www.w3.org/2000/svg">
<mask id="mask0" mask-type="alpha" maskUnits="userSpaceOnUse" x="4" y="4" width="24" height="24">
<path d="M16 28C22.6274 28 28 22.6274 28 16C28 9.37258 22.6274 4 16 4C9.37258 4 4 9.37258 4 16C4 22.6274 9.37258 28 16 28Z" fill="#C4C4C4"/>
</mask>
<g mask="url(#mask0)">
<path d="M22.9734 15.2949C23.1416 14.6655 23.9449 14.0977 23.9449 13.4152C23.9449 12.7328 23.1416 12.165 22.9734 11.5357C22.7993 10.8845 23.206 9.99216 22.8761 9.42204C22.5415 8.84371 21.5623 8.75185 21.093 8.28251C20.6237 7.81312 20.5318 6.83391 19.9535 6.49927C19.3833 6.16938 18.491 6.57602 17.8397 6.40193C17.2103 6.23368 16.6425 5.43042 15.9601 5.43042C15.2777 5.43042 14.7099 6.23368 14.0805 6.40193C13.4293 6.57597 12.537 6.16929 11.9669 6.49918C11.3885 6.83378 11.2967 7.81298 10.8273 8.28228C10.358 8.75162 9.37875 8.84349 9.0441 9.42181C8.71422 9.99198 9.12085 10.8843 8.94676 11.5355C8.77851 12.165 7.97525 12.7327 7.97525 13.4152C7.97525 14.0976 8.77851 14.6654 8.94676 15.2947C9.1208 15.9459 8.71417 16.8383 9.04401 17.4084C9.37861 17.9867 10.3578 18.0786 10.8271 18.5479C11.2965 19.0173 11.3884 19.9965 11.9666 20.3311C12.4538 20.613 13.1763 20.3571 13.7825 20.3853H18.1377C18.7439 20.3572 19.4661 20.613 19.9533 20.3312C20.5316 19.9966 20.6235 19.0174 21.0928 18.5481C21.5622 18.0787 22.5414 17.9868 22.876 17.4085C23.2059 16.8384 22.7993 15.9461 22.9734 15.2949Z" fill="#C9C6CA"/>
<path d="M23.9449 13.4153C23.9449 12.7328 23.1417 12.1651 22.9734 11.5357C22.7994 10.8845 23.206 9.99217 22.8762 9.42204C22.5416 8.84372 21.5624 8.75185 21.0931 8.28251C20.6237 7.81312 20.5318 6.83392 19.9535 6.49928C19.3833 6.16939 18.491 6.57602 17.8398 6.40193C17.2103 6.23368 16.6425 5.43042 15.9601 5.43042C15.2777 5.43042 14.7099 6.23368 14.0805 6.40193C13.678 6.50951 13.1835 6.39568 12.7297 6.3706C12.7082 6.65965 12.6936 6.9506 12.6936 7.24517C12.6936 12.085 15.655 15.769 19.864 17.5136C20.6926 17.857 21.649 18.2824 22.4225 17.8283C22.6117 17.7172 22.7737 17.5855 22.8761 17.4087C23.206 16.8385 22.7993 15.9462 22.9734 15.295C23.1417 14.6655 23.9449 14.0977 23.9449 13.4153Z" fill="#DBD9DC"/>
<path d="M22.8549 23.7895L19.1063 22.4664C18.5259 22.2616 18.1377 21.7129 18.1377 21.0974V19.9485H13.7823V21.0974C13.7823 21.7129 13.3942 22.2616 12.8137 22.4664L9.06511 23.7894C8.19448 24.0967 7.61221 24.9196 7.61221 25.8429V27.9333H24.3077V25.843C24.3078 24.9197 23.7256 24.0968 22.8549 23.7895Z" fill="#DBD9DC"/>
<path d="M21.7342 23.3939L19.1064 22.4664C18.9608 22.415 18.8274 22.3419 18.7091 22.2517L15.9601 23.54L13.2111 22.2517C13.0928 22.3419 12.9594 22.415 12.8138 22.4664L10.186 23.3938C10.3648 25.3098 11.4973 27.0131 13.1616 27.9332H18.7585C20.4229 27.0131 21.5554 25.3098 21.7342 23.3939Z" fill="#C9C6CA"/>
<path d="M18.1377 21.0974V19.9485H13.7824V21.0974C13.7824 21.7129 13.3942 22.2616 12.8138 22.4664L15.9601 23.9409L19.1063 22.4664C18.5259 22.2616 18.1377 21.7129 18.1377 21.0974Z" fill="#DBD9DC"/>
<path d="M19.1063 22.4663L15.9601 23.9408L12.8138 22.4663L11.2502 23.0182C11.3385 25.5464 13.4104 27.5702 15.9601 27.5702C18.5098 27.5702 20.5817 25.5464 20.67 23.0182L19.1063 22.4663Z" fill="#DBD9DC"/>
<path d="M15.96 21.7632C16.7313 21.7632 17.4676 21.5952 18.1377 21.2988V19.9485H13.7823V21.2988C14.4525 21.5952 15.1888 21.7632 15.96 21.7632Z" fill="#C9C6CA"/>
<path d="M21.2228 14.5042H20.6784V12.6895C20.6784 11.6873 18.5659 10.8748 15.9601 10.8748C13.3542 10.8748 11.2418 11.6873 11.2418 12.6895V14.5042H10.6974C10.1962 14.5042 9.79001 14.9105 9.79001 15.4116C9.79001 15.9127 10.1962 16.3189 10.6974 16.3189H11.2601C11.446 18.7546 13.4768 20.6743 15.9601 20.6743C18.4434 20.6743 20.4741 18.7547 20.66 16.3189H21.2228C21.7239 16.3189 22.1301 15.9127 22.1301 15.4116C22.1301 14.9105 21.7239 14.5042 21.2228 14.5042Z" fill="#DBD9DC"/>
<path d="M12.6936 15.956V15.0026C12.6936 14.6581 12.9341 14.3633 13.2712 14.2927C14.9548 13.94 17.7748 13.0524 19.5895 11.2377L19.095 11.3359C18.2611 11.05 17.1651 10.8748 15.9601 10.8748C14.6911 10.8748 13.5416 11.0685 12.6936 11.3819C11.8002 11.7121 11.2418 12.1753 11.2418 12.6895V14.5042H10.6974C10.1962 14.5042 9.79001 14.9104 9.79001 15.4116C9.79001 15.9127 10.1962 16.3189 10.6974 16.3189H11.2601C11.446 18.7546 13.4768 20.6743 15.9601 20.6743C16.2084 20.6743 16.4504 20.6501 16.6883 20.6131C14.4269 20.2641 12.6936 18.3151 12.6936 15.956Z" fill="#C9C6CA"/>
<path d="M10.8788 13.4156C10.8788 13.4156 15.5983 13.0617 18.5007 10.875H10.8788V13.4156Z" fill="#C9C6CA"/>
<path d="M15.9601 9.42285C13.3542 9.42285 11.2418 10.2353 11.2418 11.2376V12.6894C11.2418 11.6872 13.3542 10.8747 15.9601 10.8747C18.566 10.8747 20.6784 11.6872 20.6784 12.6894V11.2376C20.6784 10.2353 18.566 9.42285 15.9601 9.42285Z" fill="#C9C6CA"/>
<path d="M20.5238 23.0677C20.5369 23.0383 20.5451 23.0076 20.5558 22.9776L19.1064 22.4661L15.9601 23.9406L12.8138 22.4661L11.3644 22.9776C11.3752 23.0076 11.3833 23.0382 11.3964 23.0677L12.5924 25.7586C12.8252 26.2824 13.3462 26.6209 13.9198 26.6209C14.2581 26.6209 14.5879 26.5014 14.8484 26.2844L15.9601 25.3579L17.0718 26.2843C17.3322 26.5013 17.662 26.6209 18.0004 26.6209C18.574 26.6209 19.095 26.2824 19.3278 25.7586L20.5238 23.0677Z" fill="#C9C6CA"/>
<path d="M13.6761 21.6568L15.9601 23.9408L14.1514 25.4481C13.9663 25.6023 13.6852 25.5368 13.5874 25.3167L12.3914 22.6258C12.3548 22.5434 12.3727 22.4471 12.4364 22.3834L13.1628 21.6569C13.3046 21.5151 13.5344 21.5151 13.6761 21.6568Z" fill="#DBD9DC"/>
<path d="M18.7573 21.6568C18.6156 21.5151 18.3858 21.5151 18.2441 21.6568L15.9601 23.9408L17.7688 25.4481C17.9538 25.6023 18.235 25.5368 18.3328 25.3167L19.5288 22.6258C19.5654 22.5434 19.5475 22.447 19.4838 22.3833L18.7573 21.6568Z" fill="#DBD9DC"/>
<path d="M11.2418 17.4079C11.2418 17.8088 10.9168 18.1338 10.5159 18.1338C10.115 18.1338 9.79001 17.8088 9.79001 17.4079C9.79001 16.682 10.5159 16.3191 10.5159 16.3191C10.5159 16.3191 11.2418 16.682 11.2418 17.4079Z" fill="#DBD9DC"/>
<path d="M22.1301 17.4077C22.1301 17.8085 21.8051 18.1335 21.4042 18.1335C21.0034 18.1335 20.6784 17.8085 20.6784 17.4077C20.6784 16.6818 21.4042 16.3188 21.4042 16.3188C21.4042 16.3188 22.1301 16.6818 22.1301 17.4077Z" fill="#DBD9DC"/>
<path d="M22.968 23.4706L19.9144 22.3929C19.8987 22.3396 19.8706 22.2897 19.8296 22.2487L18.9975 21.4166C18.8648 21.2838 18.6884 21.2107 18.5007 21.2107C18.4929 21.2107 18.4851 21.2116 18.4773 21.2119V20.7339C18.568 20.7413 18.6617 20.7513 18.758 20.7617C18.955 20.7831 19.1547 20.8048 19.3511 20.8048C19.6205 20.8048 19.8835 20.7639 20.1234 20.6251C20.5443 20.3816 20.7498 19.9127 20.9312 19.499C21.0552 19.2161 21.1723 18.9489 21.333 18.7882C21.4936 18.6276 21.7608 18.5104 22.0437 18.3865C22.4575 18.2051 22.9264 17.9995 23.17 17.5786C23.4099 17.1639 23.3574 16.6806 23.3066 16.2132C23.2729 15.9023 23.241 15.6087 23.3015 15.3825C23.3579 15.1714 23.5275 14.9411 23.7071 14.6972C23.9777 14.3296 24.2845 13.913 24.2845 13.4151C24.2845 12.9173 23.9777 12.5007 23.7071 12.1331C23.5275 11.8893 23.3579 11.659 23.3015 11.4479C23.241 11.2217 23.2729 10.9282 23.3067 10.6173C23.3575 10.1499 23.41 9.66656 23.1701 9.25191C22.9266 8.83102 22.4576 8.62546 22.0439 8.44412C21.761 8.32011 21.4938 8.20298 21.3331 8.04234C21.1725 7.88165 21.0553 7.61442 20.9314 7.33153C20.75 6.91779 20.5445 6.44886 20.1235 6.20531C19.7089 5.96539 19.2255 6.01787 18.7581 6.06862C18.4472 6.10231 18.1537 6.13423 17.9274 6.07378C17.7163 6.01732 17.486 5.84776 17.2422 5.66819C16.8746 5.39762 16.458 5.09082 15.9601 5.09082C15.4622 5.09082 15.0456 5.39762 14.678 5.66828C14.4342 5.84785 14.2039 6.01741 13.9928 6.07383C13.7666 6.13427 13.4731 6.10235 13.1622 6.06862C12.6948 6.01791 12.2115 5.9653 11.7968 6.20527C11.3759 6.44881 11.1704 6.9177 10.989 7.33144C10.865 7.61433 10.7479 7.88151 10.5872 8.04216C10.4265 8.20284 10.1593 8.31998 9.87643 8.44399C9.46269 8.62532 8.99376 8.83084 8.75021 9.25178C8.51029 9.66642 8.56277 10.1498 8.61357 10.6172C8.64734 10.928 8.67922 11.2217 8.61873 11.4479C8.56227 11.659 8.39271 11.8893 8.21314 12.1332C7.94243 12.5008 7.63568 12.9174 7.63568 13.4152C7.63568 13.9131 7.94247 14.3297 8.21314 14.6973C8.39266 14.9411 8.56227 15.1714 8.61868 15.3825C8.67913 15.6087 8.64725 15.9022 8.61348 16.2131C8.56268 16.6805 8.51016 17.1638 8.75008 17.5785C8.99358 17.9994 9.46251 18.2049 9.87625 18.3863C10.1591 18.5103 10.4263 18.6274 10.587 18.7881C10.7477 18.9487 10.8648 19.216 10.9888 19.4989C11.1701 19.9126 11.3757 20.3815 11.7966 20.6251C12.2113 20.865 12.6947 20.8126 13.1621 20.7618C13.2584 20.7513 13.3521 20.7413 13.4429 20.7339V21.2119C13.435 21.2116 13.4273 21.2108 13.4195 21.2108C13.2318 21.2108 13.0554 21.2839 12.9227 21.4166L12.0905 22.2488C12.0495 22.2898 12.0214 22.3397 12.0057 22.3929L8.95219 23.4706C7.94763 23.8252 7.27274 24.7791 7.27274 25.8444V27.9331C7.27274 28.1206 7.42478 28.2726 7.61231 28.2726C7.79985 28.2726 7.95189 28.1206 7.95189 27.9331V25.8443C7.95189 25.6183 7.99377 25.3992 8.07079 25.1957L9.78792 26.6675C10.0347 26.8791 10.1763 27.1869 10.1763 27.5119V27.9331C10.1763 28.1206 10.3283 28.2726 10.5159 28.2726C10.7034 28.2726 10.8555 28.1206 10.8555 27.9331V27.5119C10.8555 26.9883 10.6274 26.4925 10.2299 26.1519L8.42992 24.609C8.63018 24.3882 8.88487 24.2146 9.17826 24.111L10.9419 23.4885C11.2559 25.9958 13.3926 27.9097 15.9601 27.9097C18.5264 27.9097 20.6642 25.9953 20.9782 23.4885L22.7419 24.111C23.0353 24.2145 23.29 24.3882 23.4903 24.609L21.6903 26.1518C21.2927 26.4925 21.0647 26.9883 21.0647 27.5119V27.933C21.0647 28.1206 21.2167 28.2726 21.4043 28.2726C21.5918 28.2726 21.7438 28.1206 21.7438 27.933V27.5119C21.7438 27.1868 21.8854 26.879 22.1322 26.6675L23.8494 25.1956C23.9264 25.3992 23.9683 25.6182 23.9683 25.8443V27.9331C23.9683 28.1206 24.1203 28.2726 24.3078 28.2726C24.4954 28.2726 24.6474 28.1206 24.6474 27.9331V25.8443C24.6474 24.7791 23.9725 23.8251 22.968 23.4706ZM15.9601 23.4604L14.122 21.6223V20.6679C14.692 20.891 15.3119 21.0137 15.9601 21.0137C16.6082 21.0137 17.2281 20.891 17.7982 20.6679V21.6223L15.9601 23.4604ZM10.5161 16.7234C10.6752 16.8467 10.9022 17.08 10.9022 17.4076C10.9022 17.6206 10.7289 17.7939 10.5159 17.7939C10.3029 17.7939 10.1295 17.6206 10.1295 17.4076C10.1296 17.0803 10.3569 16.8468 10.5161 16.7234ZM11.5814 15.9558C11.5814 15.7683 11.4293 15.6163 11.2418 15.6163C11.0543 15.6163 10.9022 15.7683 10.9022 15.9558C10.9022 15.9636 10.9025 15.9714 10.9025 15.9792H10.6974C10.3843 15.9792 10.1296 15.7245 10.1296 15.4114C10.1296 15.0983 10.3843 14.8437 10.6974 14.8437H11.9911V15.23C11.9911 16.2177 12.7947 17.0213 13.7824 17.0213C14.7702 17.0213 15.5738 16.2177 15.5738 15.23V15.2066H16.3464V15.23C16.3464 16.2177 17.15 17.0213 18.1377 17.0213C19.1254 17.0213 19.9291 16.2177 19.9291 15.23V14.8437H21.2228C21.5358 14.8437 21.7906 15.0983 21.7906 15.4114C21.7906 15.7245 21.5359 15.9792 21.2228 15.9792H21.0176C21.0177 15.9714 21.0179 15.9637 21.0179 15.9558C21.0179 15.7683 20.8659 15.6163 20.6783 15.6163C20.4908 15.6163 20.3388 15.7683 20.3388 15.9558C20.3388 18.3703 18.3745 20.3346 15.9601 20.3346C13.5457 20.3346 11.5814 18.3703 11.5814 15.9558ZM11.5814 12.6893C11.5814 12.0733 13.2472 11.2142 15.9601 11.2142C16.408 11.2142 16.8443 11.2384 17.2606 11.2855C15.2311 12.5071 12.5466 12.9232 11.5814 13.0385V12.6893ZM11.5814 13.7236C12.6209 13.6093 15.9693 13.1236 18.2409 11.4478C18.4227 11.4884 18.5986 11.5337 18.7669 11.5843C18.9463 11.6383 19.1359 11.5366 19.19 11.357C19.244 11.1774 19.1422 10.988 18.9626 10.934C18.0952 10.6729 17.0569 10.535 15.9601 10.535C14.2744 10.535 12.5159 10.8919 11.5814 11.5696V11.2375C11.5814 10.6215 13.2473 9.76236 15.9601 9.76236C18.673 9.76236 20.3388 10.6215 20.3388 11.2375V11.5713C20.3387 11.5713 20.3386 11.5711 20.3385 11.571C20.1871 11.4606 19.9746 11.4935 19.8639 11.6448C19.7533 11.7963 19.7863 12.0087 19.9377 12.1194C20.1207 12.2531 20.3388 12.4605 20.3388 12.6892V14.1644H16.686C16.4985 14.1644 16.3464 14.3164 16.3464 14.504V14.5274H15.5738V14.504C15.5738 14.3164 15.4218 14.1644 15.2342 14.1644H11.5814V13.7236ZM17.0255 14.8436H17.7981V15.2614C17.7981 15.449 17.9501 15.601 18.1377 15.601C18.3252 15.601 18.4773 15.449 18.4773 15.2614V14.8436H19.2499V15.2299C19.2499 15.8432 18.751 16.3421 18.1378 16.3421C17.5245 16.3421 17.0256 15.8432 17.0256 15.2299V14.8436H17.0255ZM12.6702 14.8436H13.4428V15.2614C13.4428 15.449 13.5948 15.601 13.7823 15.601C13.9699 15.601 14.1219 15.449 14.1219 15.2614V14.8436H14.8946V15.2299C14.8946 15.8432 14.3957 16.3421 13.7824 16.3421C13.1692 16.3421 12.6703 15.8432 12.6703 15.2299V14.8436H12.6702ZM21.4043 17.7939C21.1912 17.7939 21.018 17.6206 21.018 17.4076C21.018 17.0805 21.245 16.8471 21.4042 16.7237C21.5638 16.8474 21.7906 17.0808 21.7906 17.4076C21.7906 17.6206 21.6173 17.7939 21.4043 17.7939ZM20.3091 19.2264C20.1561 19.5755 20.0116 19.9052 19.7832 20.0373C19.5686 20.1616 19.2305 20.1298 18.8696 20.0907C19.598 19.5766 20.1852 18.8751 20.5604 18.0569C20.6392 18.1592 20.7361 18.2468 20.8464 18.3149C20.5992 18.5653 20.4516 18.9013 20.3091 19.2264ZM9.33795 17.2384C9.20941 17.0162 9.2479 16.6617 9.28869 16.2865C9.32772 15.9273 9.36806 15.5559 9.27484 15.2071C9.18524 14.8721 8.96913 14.5784 8.76004 14.2946C8.53107 13.9837 8.31483 13.69 8.31483 13.4152C8.31483 13.1404 8.53107 12.8467 8.76004 12.5359C8.96908 12.2519 9.18528 11.9583 9.27484 11.6232C9.36806 11.2745 9.32772 10.9031 9.28874 10.5439C9.24799 10.1686 9.2095 9.81412 9.33805 9.5919C9.47016 9.36356 9.79992 9.21904 10.1491 9.06605C10.4771 8.92225 10.8163 8.77356 11.0675 8.52245C11.3186 8.27135 11.4673 7.93213 11.6111 7.6041C11.7641 7.25497 11.9086 6.92522 12.137 6.79314C12.3592 6.66456 12.7137 6.70313 13.0889 6.74384C13.448 6.78287 13.8194 6.8233 14.1682 6.72998C14.5033 6.64043 14.7969 6.42427 15.0808 6.21523C15.3916 5.98622 15.6853 5.76998 15.9601 5.76998C16.2349 5.76998 16.5286 5.98622 16.8395 6.21518C17.1234 6.42423 17.417 6.64043 17.752 6.72994C18.1009 6.82316 18.4722 6.78282 18.8315 6.74388C19.2067 6.70313 19.5611 6.66456 19.7834 6.79324C20.0118 6.92535 20.1563 7.25511 20.3094 7.60424C20.4531 7.93227 20.6018 8.27148 20.8529 8.52259C21.104 8.77374 21.4433 8.92243 21.7713 9.06619C22.1204 9.21922 22.4502 9.36375 22.5822 9.59208C22.7108 9.8143 22.6723 10.1687 22.6315 10.544C22.5925 10.9032 22.5521 11.2745 22.6454 11.6233C22.735 11.9584 22.9511 12.252 23.1602 12.5359C23.3891 12.8467 23.6054 13.1404 23.6054 13.4152C23.6054 13.69 23.3891 13.9837 23.1602 14.2946C22.9511 14.5785 22.7349 14.8721 22.6453 15.2072C22.5521 15.556 22.5924 15.9274 22.6314 16.2866C22.6722 16.6618 22.7106 17.0163 22.5821 17.2385C22.5533 17.2883 22.5146 17.3339 22.4688 17.3767C22.4592 16.9269 22.2428 16.5921 22.0226 16.3671C22.2957 16.1382 22.4697 15.7948 22.4697 15.4114C22.4697 14.7238 21.9104 14.1645 21.2228 14.1645H21.0179V11.2375C21.0179 9.83825 18.412 9.08321 15.9601 9.08321C13.5082 9.08321 10.9022 9.83825 10.9022 11.2375V14.1645H10.6974C10.0098 14.1645 9.45042 14.7238 9.45042 15.4114C9.45042 15.7948 9.62447 16.1382 9.89758 16.3671C9.6774 16.5921 9.46102 16.9269 9.45133 17.3767C9.40551 17.3339 9.3668 17.2882 9.33795 17.2384ZM12.1368 20.0373C11.9084 19.9051 11.7639 19.5753 11.6109 19.2262C11.4684 18.9011 11.3208 18.5653 11.0737 18.3149C11.184 18.2469 11.2809 18.1592 11.3598 18.0569C11.735 18.8751 12.3221 19.5766 13.0505 20.0907C12.6895 20.1298 12.3514 20.1614 12.1368 20.0373ZM13.4029 21.8968C13.4046 21.8951 13.4098 21.8899 13.4194 21.8899C13.4291 21.8899 13.4343 21.8951 13.4359 21.8968L15.457 23.9179L13.9339 25.1871C13.9313 25.1893 13.9252 25.1946 13.9137 25.1919C13.9024 25.1892 13.8991 25.1818 13.8977 25.1786L12.7357 22.5641L13.4029 21.8968ZM11.6001 23.2563L12.2052 23.0427L13.2771 25.4544C13.3674 25.6575 13.5432 25.8029 13.7597 25.8534C13.8135 25.8658 13.8676 25.872 13.9213 25.872C14.0833 25.872 14.2406 25.8157 14.3688 25.7088L15.6205 24.6657V27.2174C13.5023 27.055 11.7945 25.3857 11.6001 23.2563ZM16.2997 27.2174V24.6656L17.5514 25.7088C17.6797 25.8157 17.8369 25.872 17.999 25.872C18.0526 25.872 18.1067 25.8658 18.1605 25.8533C18.3769 25.8029 18.5528 25.6575 18.6431 25.4544L19.1577 24.2965C19.2339 24.1251 19.1567 23.9245 18.9853 23.8483C18.8141 23.7721 18.6133 23.8493 18.5371 24.0207L18.0225 25.1786C18.0211 25.1818 18.0178 25.1892 18.0065 25.1919C17.995 25.1946 17.9888 25.1893 17.9862 25.1871L16.4631 23.9179L18.4842 21.8968C18.4859 21.8951 18.491 21.8899 18.5007 21.8899C18.5103 21.8899 18.5155 21.8951 18.5172 21.8968L19.1845 22.5641L19.1178 22.7141C19.0416 22.8854 19.1188 23.0862 19.2902 23.1623C19.4435 23.2305 19.6198 23.1757 19.7099 23.0409L20.32 23.2562C20.1256 25.3853 18.4169 27.0548 16.2997 27.2174Z" fill="#202020"/>
<path d="M15.9601 18.8361C16.4988 18.8361 16.995 18.6638 17.2874 18.3753C17.4209 18.2436 17.4224 18.0286 17.2907 17.8951C17.1589 17.7615 16.9439 17.7601 16.8104 17.8918C16.6865 18.0141 16.3894 18.1569 15.9601 18.1569C15.5308 18.1569 15.2337 18.0141 15.1098 17.8918C14.9762 17.76 14.7612 17.7615 14.6296 17.8951C14.4978 18.0286 14.4993 18.2436 14.6328 18.3753C14.9253 18.6638 15.4214 18.8361 15.9601 18.8361Z" fill="#202020"/>
<path d="M17.7748 13.7551H18.5007C18.6882 13.7551 18.8402 13.6031 18.8402 13.4155C18.8402 13.2279 18.6882 13.0759 18.5007 13.0759H17.7748C17.5873 13.0759 17.4352 13.2279 17.4352 13.4155C17.4352 13.6031 17.5872 13.7551 17.7748 13.7551Z" fill="#202020"/>
</g>
</svg>
